<mxfile host="app.diagrams.net" agent="Mozilla/5.0 (Windows NT 10.0; Win64; x64) AppleWebKit/537.36 (KHTML, like Gecko) Chrome/127.0.0.0 Safari/537.36" version="24.7.6">
  <diagram name="Page-1" id="iadr8DjzPA92JS5Oi6yn">
    <mxGraphModel dx="2465" dy="963" grid="1" gridSize="10" guides="1" tooltips="1" connect="1" arrows="1" fold="1" page="1" pageScale="1" pageWidth="850" pageHeight="1100" math="0" shadow="0">
      <root>
        <mxCell id="0" />
        <mxCell id="1" parent="0" />
        <mxCell id="cuyy3vvyrgnucEq45QiB-1" value="Host" style="rounded=0;whiteSpace=wrap;html=1;fillColor=#f8cecc;strokeColor=#b85450;" parent="1" vertex="1">
          <mxGeometry x="-100" y="30" width="120" height="60" as="geometry" />
        </mxCell>
        <mxCell id="cuyy3vvyrgnucEq45QiB-2" value="Accomodation" style="rounded=0;whiteSpace=wrap;html=1;fillColor=#d5e8d4;strokeColor=#82b366;" parent="1" vertex="1">
          <mxGeometry x="-230" y="100" width="120" height="60" as="geometry" />
        </mxCell>
        <mxCell id="cuyy3vvyrgnucEq45QiB-3" value="ReservationRequest" style="rounded=0;whiteSpace=wrap;html=1;fillColor=#d5e8d4;strokeColor=#82b366;" parent="1" vertex="1">
          <mxGeometry x="-280" y="420" width="120" height="60" as="geometry" />
        </mxCell>
        <mxCell id="cuyy3vvyrgnucEq45QiB-4" value="AvailabilityPeriod" style="rounded=0;whiteSpace=wrap;html=1;fillColor=#dae8fc;strokeColor=#6c8ebf;" parent="1" vertex="1">
          <mxGeometry x="-120" y="430" width="120" height="60" as="geometry" />
        </mxCell>
        <mxCell id="cuyy3vvyrgnucEq45QiB-6" value="AccomodationId" style="rounded=0;whiteSpace=wrap;html=1;fillColor=#d5e8d4;strokeColor=#82b366;" parent="1" vertex="1">
          <mxGeometry x="-220" y="110" width="120" height="60" as="geometry" />
        </mxCell>
        <mxCell id="cuyy3vvyrgnucEq45QiB-7" value="Address" style="rounded=0;whiteSpace=wrap;html=1;" parent="1" vertex="1">
          <mxGeometry x="-90" y="110" width="120" height="60" as="geometry" />
        </mxCell>
        <mxCell id="cuyy3vvyrgnucEq45QiB-8" value="User" style="rounded=0;whiteSpace=wrap;html=1;" parent="1" vertex="1">
          <mxGeometry x="40" y="110" width="120" height="60" as="geometry" />
        </mxCell>
        <mxCell id="cuyy3vvyrgnucEq45QiB-9" value="Accomodation" style="rounded=0;whiteSpace=wrap;html=1;fillColor=#f8cecc;strokeColor=#b85450;" parent="1" vertex="1">
          <mxGeometry x="-220" y="350" width="120" height="60" as="geometry" />
        </mxCell>
        <mxCell id="cuyy3vvyrgnucEq45QiB-10" value="ReservationRequestId" style="rounded=0;whiteSpace=wrap;html=1;fillColor=#d5e8d4;strokeColor=#82b366;" parent="1" vertex="1">
          <mxGeometry x="-270" y="440" width="120" height="60" as="geometry" />
        </mxCell>
        <mxCell id="cuyy3vvyrgnucEq45QiB-11" value="AvailabilityPeriod" style="rounded=0;whiteSpace=wrap;html=1;fillColor=#dae8fc;strokeColor=#6c8ebf;" parent="1" vertex="1">
          <mxGeometry x="-110" y="440" width="120" height="60" as="geometry" />
        </mxCell>
        <mxCell id="cuyy3vvyrgnucEq45QiB-12" value="HostId" style="rounded=0;whiteSpace=wrap;html=1;fillColor=#d5e8d4;strokeColor=#82b366;" parent="1" vertex="1">
          <mxGeometry x="40" y="430" width="120" height="60" as="geometry" />
        </mxCell>
        <mxCell id="cuyy3vvyrgnucEq45QiB-13" value="Review" style="rounded=0;whiteSpace=wrap;html=1;fillColor=#d5e8d4;strokeColor=#82b366;" parent="1" vertex="1">
          <mxGeometry x="-260" y="520" width="120" height="60" as="geometry" />
        </mxCell>
        <mxCell id="cuyy3vvyrgnucEq45QiB-14" value="ReviewId" style="rounded=0;whiteSpace=wrap;html=1;fillColor=#d5e8d4;strokeColor=#82b366;" parent="1" vertex="1">
          <mxGeometry x="-250" y="530" width="120" height="60" as="geometry" />
        </mxCell>
        <mxCell id="cuyy3vvyrgnucEq45QiB-18" value="Reservation" style="rounded=0;whiteSpace=wrap;html=1;fillColor=#dae8fc;strokeColor=#6c8ebf;" parent="1" vertex="1">
          <mxGeometry x="-110" y="530" width="120" height="60" as="geometry" />
        </mxCell>
        <mxCell id="cuyy3vvyrgnucEq45QiB-20" value="GuestId" style="rounded=0;whiteSpace=wrap;html=1;fillColor=#d5e8d4;strokeColor=#82b366;" parent="1" vertex="1">
          <mxGeometry x="-120" y="610" width="120" height="60" as="geometry" />
        </mxCell>
        <mxCell id="cuyy3vvyrgnucEq45QiB-21" value="Guest" style="rounded=0;whiteSpace=wrap;html=1;fillColor=#f8cecc;strokeColor=#b85450;" parent="1" vertex="1">
          <mxGeometry x="260" y="620" width="120" height="60" as="geometry" />
        </mxCell>
        <mxCell id="cuyy3vvyrgnucEq45QiB-22" value="Reservation" style="rounded=0;whiteSpace=wrap;html=1;fillColor=#d5e8d4;strokeColor=#82b366;" parent="1" vertex="1">
          <mxGeometry x="170" y="690" width="120" height="60" as="geometry" />
        </mxCell>
        <mxCell id="cuyy3vvyrgnucEq45QiB-23" value="AccomodationId" style="rounded=0;whiteSpace=wrap;html=1;fillColor=#d5e8d4;strokeColor=#82b366;" parent="1" vertex="1">
          <mxGeometry x="180" y="700" width="120" height="60" as="geometry" />
        </mxCell>
        <mxCell id="cuyy3vvyrgnucEq45QiB-24" value="Review" style="rounded=0;whiteSpace=wrap;html=1;" parent="1" vertex="1">
          <mxGeometry x="320" y="690" width="120" height="60" as="geometry" />
        </mxCell>
        <mxCell id="cuyy3vvyrgnucEq45QiB-25" value="Photo" style="rounded=0;whiteSpace=wrap;html=1;fillColor=#dae8fc;strokeColor=#6c8ebf;" parent="1" vertex="1">
          <mxGeometry x="50" y="520" width="120" height="60" as="geometry" />
        </mxCell>
        <mxCell id="cuyy3vvyrgnucEq45QiB-26" value="Photo" style="rounded=0;whiteSpace=wrap;html=1;fillColor=#dae8fc;strokeColor=#6c8ebf;" parent="1" vertex="1">
          <mxGeometry x="60" y="530" width="120" height="60" as="geometry" />
        </mxCell>
        <mxCell id="cuyy3vvyrgnucEq45QiB-27" value="ReviewId" style="rounded=0;whiteSpace=wrap;html=1;fillColor=#d5e8d4;strokeColor=#82b366;" parent="1" vertex="1">
          <mxGeometry x="330" y="700" width="120" height="60" as="geometry" />
        </mxCell>
        <mxCell id="cuyy3vvyrgnucEq45QiB-28" value="ReservationRequest" style="rounded=0;whiteSpace=wrap;html=1;fillColor=#d5e8d4;strokeColor=#82b366;" parent="1" vertex="1">
          <mxGeometry x="270" y="780" width="120" height="60" as="geometry" />
        </mxCell>
        <mxCell id="cuyy3vvyrgnucEq45QiB-31" value="ReservationRequestId" style="rounded=0;whiteSpace=wrap;html=1;fillColor=#d5e8d4;strokeColor=#82b366;" parent="1" vertex="1">
          <mxGeometry x="290" y="800" width="120" height="60" as="geometry" />
        </mxCell>
        <mxCell id="cuyy3vvyrgnucEq45QiB-32" value="Review" style="rounded=0;whiteSpace=wrap;html=1;fillColor=#f8cecc;strokeColor=#b85450;" parent="1" vertex="1">
          <mxGeometry x="-120" y="860" width="120" height="60" as="geometry" />
        </mxCell>
        <mxCell id="cuyy3vvyrgnucEq45QiB-33" value="AccomodationId" style="rounded=0;whiteSpace=wrap;html=1;fillColor=#d5e8d4;strokeColor=#82b366;" parent="1" vertex="1">
          <mxGeometry x="-230" y="940" width="120" height="60" as="geometry" />
        </mxCell>
        <mxCell id="cuyy3vvyrgnucEq45QiB-34" value="GuestId" style="rounded=0;whiteSpace=wrap;html=1;fillColor=#d5e8d4;strokeColor=#82b366;" parent="1" vertex="1">
          <mxGeometry x="-90" y="940" width="120" height="60" as="geometry" />
        </mxCell>
        <mxCell id="cuyy3vvyrgnucEq45QiB-42" value="ReservationRequest" style="rounded=0;whiteSpace=wrap;html=1;fillColor=#f8cecc;strokeColor=#b85450;" parent="1" vertex="1">
          <mxGeometry x="330" y="910" width="120" height="60" as="geometry" />
        </mxCell>
        <mxCell id="cuyy3vvyrgnucEq45QiB-43" value="GuestId" style="rounded=0;whiteSpace=wrap;html=1;fillColor=#d5e8d4;strokeColor=#82b366;" parent="1" vertex="1">
          <mxGeometry x="250" y="990" width="120" height="60" as="geometry" />
        </mxCell>
        <mxCell id="cuyy3vvyrgnucEq45QiB-44" value="AccomodationId" style="rounded=0;whiteSpace=wrap;html=1;fillColor=#d5e8d4;strokeColor=#82b366;" parent="1" vertex="1">
          <mxGeometry x="400" y="990" width="120" height="60" as="geometry" />
        </mxCell>
        <mxCell id="cuyy3vvyrgnucEq45QiB-45" value="Reservation" style="rounded=0;whiteSpace=wrap;html=1;fillColor=#dae8fc;strokeColor=#6c8ebf;" parent="1" vertex="1">
          <mxGeometry x="-100" y="540" width="120" height="60" as="geometry" />
        </mxCell>
      </root>
    </mxGraphModel>
  </diagram>
</mxfile>
